<svg xmlns="http://www.w3.org/2000/svg" viewBox="0 0 150 146.29"><defs><style>.cls-1{fill:#1b1817;fill-rule:evenodd;}</style></defs><g id="Слой_2" data-name="Слой 2"><g id="Слой_1-2" data-name="Слой 1"><path class="cls-1" d="M75,0a75,75,0,0,0-23.7,146.17c3.75.68,5.12-1.64,5.12-3.63,0-1.78-.07-6.49-.1-12.75-20.86,4.53-25.26-10-25.26-10-3.42-8.67-8.33-11-8.33-11-6.81-4.64.51-4.55.51-4.55,7.53.53,11.49,7.73,11.49,7.73,6.69,11.46,17.56,8.15,21.83,6.23.68-4.85,2.62-8.15,4.76-10-16.66-1.89-34.17-8.33-34.17-37.06A29,29,0,0,1,34.87,51c-.78-1.9-3.35-9.52.73-19.85,0,0,6.3-2,20.63,7.69a71.16,71.16,0,0,1,37.54,0c14.32-9.71,20.61-7.69,20.61-7.69,4.09,10.33,1.52,17.95.75,19.85a29,29,0,0,1,7.7,20.13c0,28.81-17.53,35.15-34.24,37,2.69,2.32,5.09,6.9,5.09,13.9,0,10-.09,18.11-.09,20.56,0,2,1.35,4.35,5.16,3.61A75,75,0,0,0,75,0"/></g></g></svg>