<?xml version="1.0" encoding="UTF-8" standalone="no"?>
<svg
   xmlns:dc="http://purl.org/dc/elements/1.1/"
   xmlns:cc="http://creativecommons.org/ns#"
   xmlns:rdf="http://www.w3.org/1999/02/22-rdf-syntax-ns#"
   xmlns:svg="http://www.w3.org/2000/svg"
   xmlns="http://www.w3.org/2000/svg"
   xmlns:xlink="http://www.w3.org/1999/xlink"
   xmlns:sodipodi="http://sodipodi.sourceforge.net/DTD/sodipodi-0.dtd"
   xmlns:inkscape="http://www.inkscape.org/namespaces/inkscape"
   inkscape:version="1.0 (4035a4f, 2020-05-01)"
   sodipodi:docname="instagram.svg"
   id="svg859"
   version="1.1"
   viewBox="-19.5036 -32.49725 75.145462 129.989"
   width="533.47876"
   height="533.33331">
  <metadata
     id="metadata863">
    <rdf:RDF>
      <cc:Work
         rdf:about="">
        <dc:format>image/svg+xml</dc:format>
        <dc:type
           rdf:resource="http://purl.org/dc/dcmitype/StillImage" />
        <dc:title></dc:title>
      </cc:Work>
    </rdf:RDF>
  </metadata>
  <sodipodi:namedview
     inkscape:current-layer="svg859"
     inkscape:window-maximized="0"
     inkscape:window-y="0"
     inkscape:window-x="0"
     inkscape:cy="266.66667"
     inkscape:cx="266.74029"
     inkscape:zoom="0.59333333"
     fit-margin-bottom="0"
     fit-margin-right="0"
     fit-margin-left="0"
     fit-margin-top="0"
     showgrid="false"
     id="namedview861"
     inkscape:window-height="900"
     inkscape:window-width="1440"
     inkscape:pageshadow="2"
     inkscape:pageopacity="0"
     guidetolerance="10"
     gridtolerance="10"
     objecttolerance="10"
     borderopacity="1"
     bordercolor="#666666"
     pagecolor="#ffffff" />
  <defs
     id="defs851">
    <radialGradient
       id="c"
       cx="158.429"
       cy="578.08801"
       r="65"
       xlink:href="#a"
       gradientUnits="userSpaceOnUse"
       gradientTransform="matrix(0,-1.98198,1.8439,0,-1112.6242,421.50675)"
       fx="158.429"
       fy="578.08801" />
    <radialGradient
       id="d"
       cx="147.694"
       cy="473.45499"
       r="65"
       xlink:href="#b"
       gradientUnits="userSpaceOnUse"
       gradientTransform="matrix(0.17394,0.86872,-3.5818,0.71718,1567.1258,-490.99025)"
       fx="147.694"
       fy="473.45499" />
    <linearGradient
       id="b">
      <stop
         id="stop835"
         offset="0"
         stop-color="#3771c8" />
      <stop
         id="stop837"
         stop-color="#3771c8"
         offset=".128" />
      <stop
         id="stop839"
         offset="1"
         stop-color="#60f"
         stop-opacity="0" />
    </linearGradient>
    <linearGradient
       id="a">
      <stop
         id="stop842"
         offset="0"
         stop-color="#fd5" />
      <stop
         id="stop844"
         offset=".1"
         stop-color="#fd5" />
      <stop
         id="stop846"
         offset=".5"
         stop-color="#ff543e" />
      <stop
         id="stop848"
         offset="1"
         stop-color="#c837ab" />
    </linearGradient>
  </defs>
  <g
     transform="translate(34.282534)"
     style="opacity:1"
     id="g868">
    <path
       d="m -16.192181,-32.49725 c -27.142,0 -35.08,0.028 -36.623,0.156 -5.57,0.463 -9.036,1.34 -12.812,3.22 -2.91,1.445 -5.205,3.12 -7.47,5.468 -4.125,4.282 -6.625,9.55 -7.53,15.812 -0.44,3.04 -0.568,3.66 -0.594,19.188 -0.01,5.176 0,11.988 0,21.125 0,27.12 0.03,35.05 0.16,36.59 0.45,5.42 1.3,8.83 3.1,12.56 3.44,7.14 10.01,12.5 17.75,14.5 2.68,0.69 5.64,1.07 9.44,1.25 1.61,0.07 18.02,0.12 34.44,0.12 16.42000044,0 32.84,-0.02 34.41,-0.1 4.4,-0.207 6.955,-0.55 9.78,-1.28 a 27.22,27.22 0 0 0 17.75,-14.53 c 1.765,-3.64 2.66,-7.18 3.065,-12.317 0.088,-1.12 0.125,-18.977 0.125,-36.81 0,-17.836 -0.04,-35.66 -0.128,-36.78 -0.41,-5.22 -1.305,-8.73 -3.127,-12.44 -1.495,-3.037 -3.155,-5.305 -5.565,-7.624 -4.3,-4.108 -9.56,-6.608 -15.829,-7.512 -3.037,-0.439 -3.642,-0.569 -19.1819996,-0.596 z"
       fill="url(#c)"
       id="path853"
       style="fill:url(#c)" />
    <path
       d="m -16.192181,-32.49725 c -27.142,0 -35.08,0.028 -36.623,0.156 -5.57,0.463 -9.036,1.34 -12.812,3.22 -2.91,1.445 -5.205,3.12 -7.47,5.468 -4.125,4.282 -6.625,9.55 -7.53,15.812 -0.44,3.04 -0.568,3.66 -0.594,19.188 -0.01,5.176 0,11.988 0,21.125 0,27.12 0.03,35.05 0.16,36.59 0.45,5.42 1.3,8.83 3.1,12.56 3.44,7.14 10.01,12.5 17.75,14.5 2.68,0.69 5.64,1.07 9.44,1.25 1.61,0.07 18.02,0.12 34.44,0.12 16.42000044,0 32.84,-0.02 34.41,-0.1 4.4,-0.207 6.955,-0.55 9.78,-1.28 a 27.22,27.22 0 0 0 17.75,-14.53 c 1.765,-3.64 2.66,-7.18 3.065,-12.317 0.088,-1.12 0.125,-18.977 0.125,-36.81 0,-17.836 -0.04,-35.66 -0.128,-36.78 -0.41,-5.22 -1.305,-8.73 -3.127,-12.44 -1.495,-3.037 -3.155,-5.305 -5.565,-7.624 -4.3,-4.108 -9.56,-6.608 -15.829,-7.512 -3.037,-0.439 -3.642,-0.569 -19.1819996,-0.596 z"
       fill="url(#d)"
       id="path855"
       style="fill:url(#d)" />
    <path
       d="m -16.222181,-15.49725 c -13.036,0 -14.672,0.057 -19.792,0.29 -5.11,0.234 -8.598,1.043 -11.65,2.23 -3.157,1.226 -5.835,2.866 -8.503,5.535 -2.67,2.668 -4.31,5.346 -5.54,8.502 -1.19,3.053 -2,6.542 -2.23,11.65 -0.228,5.12 -0.288,6.757 -0.288,19.793 0,13.036 0.058,14.667 0.29,19.787 0.235,5.11 1.044,8.598 2.23,11.65 1.227,3.157 2.867,5.835 5.536,8.503 2.667,2.67 5.345,4.314 8.5,5.54 3.054,1.187 6.543,1.996 11.652,2.23 5.12,0.233 6.755,0.29 19.79,0.29 13.0370004,0 14.6680004,-0.057 19.7880004,-0.29 5.11,-0.234 8.6019996,-1.043 11.6559996,-2.23 3.156,-1.226 5.83,-2.87 8.497,-5.54 2.67,-2.668 4.31,-5.346 5.54,-8.502 1.18,-3.053 1.99,-6.542 2.23,-11.65 0.23,-5.12 0.29,-6.752 0.29,-19.788 0,-13.036 -0.06,-14.672 -0.29,-19.792 -0.24,-5.11 -1.05,-8.598 -2.23,-11.65 -1.23,-3.157 -2.87,-5.835 -5.54,-8.503 -2.67,-2.67 -5.34,-4.31 -8.5,-5.535 -3.06,-1.187 -6.5499996,-1.996 -11.6599996,-2.23 -5.12,-0.233 -6.75,-0.29 -19.7900004,-0.29 z m -4.306,8.65 c 1.278,-0.002 2.704,0 4.306,0 12.8160004,0 14.3350004,0.046 19.3960004,0.276 4.68,0.214 7.2199996,0.996 8.9119996,1.653 2.24,0.87 3.837,1.91 5.516,3.59 1.68,1.68 2.72,3.28 3.592,5.52 0.657,1.69 1.44,4.23 1.653,8.91 0.23,5.06 0.28,6.58 0.28,19.39 0,12.81 -0.05,14.33 -0.28,19.39 -0.214,4.68 -0.996,7.22 -1.653,8.91 -0.87,2.24 -1.912,3.835 -3.592,5.514 -1.68,1.68 -3.275,2.72 -5.516,3.59 -1.69,0.66 -4.2319996,1.44 -8.9119996,1.654 -5.06,0.23 -6.58,0.28 -19.3960004,0.28 -12.817,0 -14.336,-0.05 -19.396,-0.28 -4.68,-0.216 -7.22,-0.998 -8.913,-1.655 -2.24,-0.87 -3.84,-1.91 -5.52,-3.59 -1.68,-1.68 -2.72,-3.276 -3.592,-5.517 -0.657,-1.69 -1.44,-4.23 -1.653,-8.91 -0.23,-5.06 -0.276,-6.58 -0.276,-19.398 0,-12.818 0.046,-14.33 0.276,-19.39 0.214,-4.68 0.996,-7.22 1.653,-8.912 0.87,-2.24 1.912,-3.84 3.592,-5.52 1.68,-1.68 3.28,-2.72 5.52,-3.592 1.692,-0.66 4.233,-1.44 8.913,-1.655 4.428,-0.2 6.144,-0.26 15.09,-0.27 z m 29.9280004,7.97 a 5.76,5.76 0 1 0 5.7599996,5.758 c 0,-3.18 -2.58,-5.76 -5.7599996,-5.76 z m -25.6220004,6.73 c -13.613,0 -24.65,11.037 -24.65,24.65 0,13.613 11.037,24.645 24.65,24.645 13.6130004,0 24.6470004,-11.032 24.6470004,-24.645 0,-13.613 -11.035,-24.65 -24.6480004,-24.65 z m 0,8.65 c 8.8360004,0 16.00000044,7.163 16.00000044,16 0,8.836 -7.16400004,16 -16.00000044,16 -8.837,0 -16,-7.164 -16,-16 0,-8.837 7.163,-16 16,-16 z"
       fill="#ffffff"
       id="path857" />
  </g>
</svg>
