<svg id="Слой_1" data-name="Слой 1" xmlns="http://www.w3.org/2000/svg" viewBox="0 0 542.65 542.67"><defs><style>.cls-1{fill:#0977b6;}</style></defs><path class="cls-1" d="M549.76,0H87.28c-22.08,0-40,17.52-40,39.13V503.51c0,21.61,18,39.16,40,39.16H549.76c22.13,0,40.15-17.55,40.15-39.16V39.13c0-21.61-18-39.13-40.15-39.13M168,74.71a46.68,46.68,0,1,1-46.69,46.67A46.68,46.68,0,0,1,168,74.71m-40.3,128.73h80.57v259H127.66v-259m131.06,0h77.15v35.4H337C347.7,218.49,374,197,413.12,197c81.5,0,96.56,53.63,96.56,123.37v142H429.2V336.47c0-30-.52-68.66-41.82-68.66-41.88,0-48.27,32.73-48.27,66.51V462.41H258.72v-259" transform="translate(-47.25)"/></svg>